<svg width="60" height="60" viewBox="0 0 60 60" fill="none" xmlns="http://www.w3.org/2000/svg">
<path d="M53.7999 29.8782C53.8347 29.7706 53.8618 29.6606 53.881 29.5491C54.0617 27.8561 54.0617 26.1488 53.881 24.4558C53.7401 23.2996 52.8476 22.3782 51.6965 22.2003L48.9148 21.7481C48.3641 19.4531 47.4555 17.2591 46.2222 15.2467L47.8715 12.9461C48.5511 11.9967 48.5263 10.7138 47.8105 9.79137C47.2731 9.13524 46.7015 8.50795 46.098 7.91197C45.3898 7.21183 44.7978 6.67472 44.2076 6.19253C43.2879 5.48501 42.0118 5.46828 41.0739 6.15148L38.7674 7.80387C36.755 6.57066 34.561 5.66192 32.2659 5.11122L31.8148 2.33253C31.6406 1.17443 30.7135 0.275632 29.5503 0.137317C27.8576 -0.045691 26.15 -0.045691 24.4571 0.137317C23.3006 0.27829 22.379 1.17128 22.2016 2.32278L21.7495 5.10344C19.4545 5.65414 17.2604 6.56278 15.248 7.7961L12.9475 6.14676C12.0001 5.46119 10.713 5.486 9.79273 6.20779C9.22658 6.67088 8.63345 7.20799 7.92534 7.90822C7.31676 8.50972 6.74017 9.14272 6.19794 9.80466C5.49298 10.7273 5.47427 12.0025 6.15196 12.9454L7.80032 15.246C6.5671 17.2584 5.65836 19.4524 5.10767 21.7474L2.32897 22.1985C1.17097 22.3753 0.274144 23.3045 0.138488 24.4681C-0.0422563 26.1617 -0.0422563 27.8696 0.138488 29.5632C0.28832 30.7151 1.17717 31.6318 2.32395 31.8167L5.10757 32.2688C5.65827 34.5638 6.56691 36.7579 7.80022 38.7703L6.15984 41.0628C5.46492 42.0035 5.48333 43.2922 6.20483 44.2126C6.74509 44.8744 7.31824 45.5087 7.92219 46.113C8.48234 46.6641 9.08748 47.2132 9.81262 47.8325C10.7331 48.538 12.0077 48.5547 12.9463 47.8735L15.2469 46.2252C17.2593 47.4584 19.4533 48.3671 21.7483 48.9178L22.1994 51.6965C22.3761 52.8541 23.3048 53.7508 24.4679 53.887C26.1605 54.0677 27.8675 54.0677 29.5601 53.887C29.6678 53.8674 29.774 53.8406 29.8781 53.807C33.988 58.7982 40.5738 61.0254 46.8696 59.5532C53.1653 58.0809 58.0805 53.1643 59.5509 46.8681C61.0214 40.5718 58.7924 33.9866 53.7999 29.8782ZM24.6812 51.8903C24.4185 51.8482 24.2149 51.6381 24.1811 51.3742L23.6209 47.9234C23.5547 47.5145 23.2432 47.1888 22.8377 47.1043C20.3187 46.5798 17.9209 45.5862 15.7691 44.1755C15.4238 43.9499 14.9752 43.9595 14.6398 44.1996L11.7861 46.239C11.5805 46.401 11.2947 46.4142 11.075 46.272C10.4239 45.7179 9.85269 45.1968 9.33861 44.6917C8.67746 44.0195 8.17736 43.4674 7.77226 42.9643C7.61101 42.7468 7.61347 42.4488 7.77827 42.2341L9.81872 39.3835C10.0588 39.048 10.0684 38.5995 9.84274 38.2542C8.43213 36.1024 7.43863 33.7045 6.91402 31.1856C6.82946 30.7801 6.50371 30.4686 6.09487 30.4024L2.65207 29.8432C2.39031 29.8066 2.18042 29.6083 2.12894 29.3491C1.96286 27.7971 1.96286 26.232 2.12894 24.68C2.17107 24.4174 2.38115 24.2138 2.64508 24.1799L6.09585 23.6198C6.50469 23.5535 6.83044 23.242 6.91501 22.8365C7.43952 20.3175 8.43302 17.9197 9.84373 15.7679C10.0694 15.4226 10.0598 14.9741 9.81971 14.6387L7.77925 11.785C7.61672 11.5726 7.60825 11.2801 7.75828 11.0588C8.2506 10.458 8.77413 9.88341 9.3266 9.33744C9.99179 8.68426 10.5419 8.18219 11.037 7.77611C11.2579 7.60856 11.5633 7.60856 11.7842 7.77611L14.6348 9.81657C14.9703 10.0567 15.4187 10.0662 15.7641 9.84059C17.9159 8.42998 20.3138 7.43648 22.8327 6.91187C23.2382 6.8273 23.5497 6.50155 23.6159 6.09271L24.177 2.63692C24.2124 2.37781 24.4115 2.17147 24.6692 2.12678C26.221 1.95972 27.7864 1.95972 29.3383 2.12678C29.6009 2.16891 29.8045 2.37899 29.8384 2.64292L30.3985 6.0937C30.4648 6.50263 30.7762 6.82829 31.1818 6.91285C33.7006 7.43736 36.0986 8.43087 38.2504 9.84157C38.5957 10.0672 39.0442 10.0577 39.3796 9.81755L42.2333 7.77808C42.4447 7.61299 42.7389 7.60452 42.9594 7.75711C43.4776 8.18219 44.0277 8.68436 44.6929 9.33744C45.2406 9.8782 45.7594 10.4475 46.2472 11.0428C46.4084 11.2639 46.406 11.5645 46.2412 11.783L44.2007 14.6337C43.9606 14.9692 43.9511 15.4176 44.1767 15.7629C45.5873 17.9147 46.5808 20.3126 47.1054 22.8315C47.19 23.237 47.5157 23.5485 47.9246 23.6147L51.3804 24.1759C51.6395 24.2112 51.8458 24.4104 51.8905 24.668C51.9713 25.4456 52.0131 26.2268 52.0155 27.0085C52.0155 27.5086 51.9895 28.0348 51.9515 28.5739C49.5434 27.077 46.7969 26.2112 43.9656 26.0563C43.4615 16.9284 35.8263 9.83518 26.6861 10.0032C17.5458 10.1714 10.1767 17.5406 10.0085 26.6808C9.84038 35.821 16.9337 43.4562 26.0616 43.9603C26.2165 46.7915 27.0823 49.538 28.5792 51.9462C27.2807 52.0445 25.9762 52.0257 24.6812 51.8903ZM31.7578 30.3013C30.2385 31.6422 28.9694 33.2424 28.01 35.0274V22.8656C29.7746 22.4165 31.0098 20.8276 31.0098 19.0067C31.0098 17.1857 29.7746 15.5969 28.01 15.1477V12.056C30.1076 12.1903 32.1529 12.7674 34.0113 13.7494V24.1518C32.251 24.6064 31.0183 26.1906 31.0107 28.0087C31.0143 28.8322 31.2756 29.6338 31.7578 30.3013ZM18.0076 33.8681V38.9823C14.2306 36.161 12.0062 31.7229 12.0062 27.0085C12.0062 22.2941 14.2306 17.856 18.0076 15.0347V26.1503C16.243 26.5994 15.0078 28.1883 15.0078 30.0092C15.0078 31.8301 16.243 33.419 18.0076 33.8681ZM17.0074 30.0092C17.0074 28.9044 17.9031 28.0087 19.0079 28.0087C20.1128 28.0087 21.0084 28.9044 21.0084 30.0092C21.0084 31.114 20.1128 32.0097 19.0079 32.0097C17.9031 32.0097 17.0074 31.114 17.0074 30.0092ZM20.0081 33.8681C21.7727 33.419 23.0079 31.8301 23.0079 30.0092C23.0079 28.1884 21.7727 26.5995 20.0081 26.1503V13.7475C21.8665 12.7655 23.9119 12.1884 26.0095 12.054V15.1458C24.2449 15.5949 23.0097 17.1838 23.0097 19.0047C23.0097 20.8255 24.2449 22.4145 26.0095 22.8636V41.961C23.9118 41.8268 21.8665 41.2496 20.0081 40.2676V33.8681ZM25.0093 19.0067C25.0093 17.9018 25.9049 17.0062 27.0098 17.0062C28.1146 17.0062 29.0103 17.9018 29.0103 19.0067C29.0103 20.1115 28.1146 21.0071 27.0098 21.0071C25.9048 21.0071 25.0093 20.1115 25.0093 19.0067ZM35.0115 26.0083C35.7981 26.0079 36.5113 26.4703 36.832 27.1886C35.5931 27.6721 34.4155 28.2995 33.3231 29.058C33.1216 28.745 33.0134 28.381 33.011 28.0088C33.0111 26.904 33.9068 26.0083 35.0115 26.0083ZM36.0118 24.1499V15.0347C39.5133 17.6628 41.6888 21.692 41.9653 26.0613C40.8725 26.1278 39.7888 26.3004 38.7295 26.5764C38.2686 25.3762 37.2564 24.4724 36.0118 24.1499ZM43.0134 58.0157C34.7272 58.0157 28.0099 51.2985 28.0099 43.0122C28.0099 34.726 34.7271 28.0087 43.0134 28.0087C51.2997 28.0087 58.0169 34.726 58.0169 43.0122C58.0076 51.2945 51.2957 58.0064 43.0134 58.0157Z" fill="#FA2837"/>
<path fill-rule="evenodd" clip-rule="evenodd" d="M49.2289 35.3925L38.9225 48.5135L36.7219 46.313C36.3294 45.934 35.7056 45.9394 35.3198 46.3252C34.934 46.711 34.9286 47.3348 35.3076 47.7273L38.3083 50.728C38.4962 50.9123 38.7492 51.0151 39.0125 51.0141H39.0725C39.3577 50.997 39.622 50.8587 39.7986 50.634L50.8013 36.6308C51.0294 36.3505 51.0885 35.969 50.956 35.6329C50.8235 35.2967 50.5201 35.058 50.1622 35.0086C49.8042 34.9592 49.4475 35.1068 49.2289 35.3945V35.3925Z" fill="#FA2837"/>
</svg>
