<svg width="35" height="35" viewBox="0 0 35 35" fill="none" xmlns="http://www.w3.org/2000/svg">
<g clip-path="url(#clip0_460_3146)">
<path d="M34.6502 14.0058C34.5271 13.4009 33.9374 13.0111 33.3317 13.1335C33.2512 13.1499 33.1746 13.1751 33.1025 13.2071C32.6323 13.4148 32.3526 13.9276 32.4594 14.4521C33.6451 20.2754 31.3142 26.3085 26.5209 29.8223C23.2532 32.2176 19.2212 33.1926 15.1673 32.5684C11.1134 31.9439 7.56164 29.8005 5.16635 26.5327C0.186098 19.7381 1.66173 10.1586 8.45596 5.17796C11.7236 2.78286 15.7559 1.80786 19.8095 2.43184C23.7464 3.0383 27.2065 5.08071 29.597 8.19089L28.5692 8.04314C27.9576 7.95483 27.3913 8.37945 27.3036 8.99056C27.2156 9.60168 27.6399 10.1683 28.251 10.2562L31.9615 10.7898C31.9861 10.7934 32.0103 10.7932 32.0349 10.795C32.064 10.7973 32.0932 10.8014 32.1221 10.8014C32.6691 10.8014 33.147 10.3995 33.2273 9.84241L33.761 6.1319C33.8489 5.52079 33.4247 4.9542 32.8135 4.86625C32.2022 4.77813 31.6358 5.20256 31.5479 5.81367L31.3968 6.86432C28.6533 3.27548 24.6756 0.919131 20.1501 0.222119C15.5062 -0.49371 10.8837 0.626427 7.13441 3.3746C3.38497 6.12333 0.925962 10.1945 0.210692 14.8385C-0.504579 19.4826 0.614813 24.105 3.36336 27.8544C6.11172 31.6037 10.1829 34.0625 14.8271 34.7779C15.7426 34.919 16.6569 34.9887 17.5642 34.9887C21.2595 34.9887 24.8328 33.8318 27.8428 31.6253C33.3373 27.5975 36.0094 20.6814 34.6502 14.0058Z" fill="white"/>
<path d="M23.5878 17.9182H19.772C19.4922 17.2849 18.9831 16.7757 18.3498 16.4961V7.91917C18.3498 7.3019 17.8492 6.80127 17.2319 6.80127C16.6147 6.80127 16.114 7.3019 16.114 7.91917V16.4961C15.1385 16.9272 14.4551 17.9028 14.4551 19.0361C14.4551 20.5673 15.7008 21.813 17.2319 21.813C18.3653 21.813 19.3409 21.1296 19.772 20.154H23.5878C24.205 20.154 24.7057 19.6534 24.7057 19.0361C24.7057 18.4189 24.205 17.9182 23.5878 17.9182ZM16.6907 19.0361C16.6907 18.7377 16.9335 18.4949 17.2318 18.4949C17.5301 18.4949 17.773 18.7377 17.773 19.0361C17.773 19.3346 17.5302 19.5772 17.2318 19.5772C16.9333 19.5772 16.6907 19.3344 16.6907 19.0361Z" fill="white"/>
</g>
<defs>
<clipPath id="clip0_460_3146">
<rect width="35" height="35" fill="white"/>
</clipPath>
</defs>
</svg>
