<svg width="16" height="16" viewBox="0 0 16 16" fill="none" xmlns="http://www.w3.org/2000/svg">
<g clip-path="url(#clip0_460_3131)">
<path fill-rule="evenodd" clip-rule="evenodd" d="M8.00022 1.88007C7.59708 1.40672 7.10388 1.0182 6.54928 0.737112C5.99469 0.45602 5.38976 0.287954 4.76965 0.24268C4.14953 0.197407 3.52661 0.275829 2.93707 0.473389C2.34753 0.670949 1.80313 0.983708 1.33551 1.39349C-0.373662 3.01614 -0.477815 6.26089 1.22869 9.50619C2.36689 11.8162 5.27516 14.1477 7.71286 15.6918C7.79834 15.7459 7.89744 15.7747 7.99862 15.7747C8.09979 15.7747 8.19889 15.7459 8.28437 15.6918C10.7237 14.1466 13.6346 11.813 14.7739 9.49604C16.4767 6.25769 16.3709 3.0156 14.6633 1.39402C14.1958 0.984458 13.6515 0.671868 13.0621 0.474407C12.4728 0.276945 11.8501 0.198548 11.2301 0.243769C10.6102 0.288989 10.0055 0.456926 9.45099 0.737826C8.89652 1.01873 8.40338 1.40699 8.00022 1.88007ZM7.54836 3.0626C7.59648 3.13895 7.66316 3.20187 7.74217 3.24547C7.82119 3.28907 7.90997 3.31194 8.00022 3.31194C8.09047 3.31194 8.17925 3.28907 8.25826 3.24547C8.33728 3.20187 8.40396 3.13895 8.45208 3.0626C8.72297 2.60868 9.08979 2.21944 9.52687 1.92213C9.96394 1.62482 10.4607 1.42661 10.9824 1.34139C11.5041 1.25618 12.0381 1.286 12.5471 1.42877C13.056 1.57155 13.5277 1.82383 13.9289 2.16796C14.4864 2.73321 14.8301 3.47469 14.901 4.26543C15.0263 5.91893 14.6513 7.57188 13.8248 9.00946C13.8248 9.01373 13.82 9.01854 13.8178 9.02281C12.7966 11.1016 10.2227 13.1654 8.00022 14.6059C5.77776 13.1638 3.20385 11.1016 2.18262 9.02281C2.18262 9.01854 2.17835 9.01373 2.17568 9.00946C1.34942 7.57178 0.974445 5.91891 1.09943 4.26543C1.17065 3.47476 1.51425 2.73337 2.07152 2.16796C2.47278 1.82383 2.94439 1.57155 3.45335 1.42877C3.96232 1.286 4.49633 1.25618 5.01803 1.34139C5.53973 1.42661 6.0365 1.62482 6.47357 1.92213C6.91065 2.21944 7.27747 2.60868 7.54836 3.0626Z" fill="white"/>
</g>
<defs>
<clipPath id="clip0_460_3131">
<rect width="16" height="16" fill="white"/>
</clipPath>
</defs>
</svg>
